<?xml version="1.0" standalone="no"?>
<!DOCTYPE svg PUBLIC "-//W3C//DTD SVG 20010904//EN"
 "http://www.w3.org/TR/2001/REC-SVG-20010904/DTD/svg10.dtd">
<svg version="1.0" xmlns="http://www.w3.org/2000/svg"
 width="225.000000pt" height="225.000000pt" viewBox="0 0 225.000000 225.000000"
 preserveAspectRatio="xMidYMid meet">
<metadata>
Created by potrace 1.11, written by Peter Selinger 2001-2013
</metadata>
<g transform="translate(0.000000,225.000000) scale(0.100000,-0.100000)"
fill="#000000" stroke="none">
<path d="M255 2051 c-16 -10 -39 -28 -50 -41 -20 -22 -20 -38 -23 -872 l-2
-850 21 -38 c42 -74 -9 -70 927 -70 818 0 838 1 870 20 18 11 41 34 52 52 19
32 20 52 20 868 0 931 4 879 -69 927 l-34 23 -841 0 c-801 0 -842 -1 -871 -19z
m945 -560 c85 -222 48 -197 308 -207 95 -4 171 -10 170 -14 -2 -4 -70 -63
-153 -130 -82 -67 -151 -125 -152 -129 -2 -3 20 -91 47 -196 27 -104 47 -191
45 -193 -2 -3 -78 43 -168 102 -90 58 -167 106 -172 106 -5 0 -82 -48 -172
-106 -90 -59 -166 -105 -168 -102 -2 2 18 89 45 193 27 105 49 193 47 196 -1
4 -69 62 -152 129 -82 67 -151 126 -153 130 -1 4 75 10 170 14 260 10 223 -15
308 207 40 104 74 189 75 189 1 0 35 -85 75 -189z"/>
</g>
</svg>
